<svg xmlns="http://www.w3.org/2000/svg" viewBox="0 0 460 215" width="460" height="215" role="img" aria-label="League of Legends">
  <defs>
    <linearGradient id="bg" x1="0" y1="0" x2="1" y2="1">
      <stop offset="0" stop-color="#091428"/>
      <stop offset="1" stop-color="#1c3a70"/>
    </linearGradient>
    <radialGradient id="glow" cx="0.74" cy="0.42" r="0.55">
      <stop offset="0" stop-color="#4fa3ff" stop-opacity="0.55"/>
      <stop offset="1" stop-color="#4fa3ff" stop-opacity="0"/>
    </radialGradient>
  </defs>
  <rect width="460" height="215" fill="url(#bg)"/>
  <rect width="460" height="215" fill="url(#glow)"/>
  <g fill="none" stroke="#c8aa6e" stroke-width="2">
    <polygon points="340,32 394,63 394,125 340,156 286,125 286,63" opacity="0.95"/>
    <polygon points="340,50 378,72 378,116 340,138 302,116 302,72" opacity="0.7"/>
    <polygon points="340,68 362,81 362,107 340,120 318,107 318,81" opacity="0.5"/>
    <path d="M286 94 H250 M394 94 H430 M340 156 V190 M340 32 V6" opacity="0.6"/>
  </g>
  <circle cx="340" cy="94" r="7" fill="#c8aa6e"/>
  <text x="28" y="150" font-family="Segoe UI, Helvetica, Arial, sans-serif" font-weight="800" font-size="30" fill="#f0e6d2" letter-spacing="1">League of</text>
  <text x="28" y="186" font-family="Segoe UI, Helvetica, Arial, sans-serif" font-weight="800" font-size="30" fill="#f0e6d2" letter-spacing="1">Legends</text>
</svg>
